# xmcd
#
# Track frame offsets:
#	183
#	16633
#	36133
#	50943
#	66583
#	78520
#	92178
#	106980
#	118390
#	130890
#	143108
#	157658
#
# Disc length: 2272 seconds
#
# Revision: 0
# Processed by: cddbd v1.4PL0 Copyright (c) Steve Scherf et al.
# Submitted via: audiograbber 1.82.02
#
DISCID=a408de0c
DTITLE=Tina Turner - Tina Turner Goes Country
DYEAR=1974
DGENRE=Country
TTITLE0=Lay It Down
TTITLE1=Lovin' Him Was Easier
TTITLE2=Good Hearted Woman
TTITLE3=If This Was Our Last Time
TTITLE4=Stand By Your Man
TTITLE5=Freedom To Stay
TTITLE6=We Had It All
TTITLE7=Soul Deep
TTITLE8=If It's All Right With You
TTITLE9=You Ain't Woman Enough To Take My Man
TTITLE10=Lay It Down - Lovin' Him Was Easier (Medley)
TTITLE11=Soul Deep - You Ain't Woman Enough To Take My Man (Medley)
EXTD=YEAR: 1974 ID3G:   2
EXTT0=
EXTT1=
EXTT2=
EXTT3=
EXTT4=
EXTT5=
EXTT6=
EXTT7=
EXTT8=
EXTT9=
EXTT10=
EXTT11=
PLAYORDER=
